<svg 
  xmlns="http://www.w3.org/2000/svg" 
  xmlns:xlink="http://www.w3.org/1999/xlink" 
  width="200" 
  zoomAndPan="magnify" 
  viewBox="0 0 150 149.999998" 
  height="200" 
  preserveAspectRatio="xMidYMid meet" 
  version="1.0"
>
  <defs>
    <clipPath id="5172da2761">
      <path d="M 60 56 L 147.582031 56 L 147.582031 146 L 60 146 Z M 60 56 " clip-rule="nonzero"/>
    </clipPath>
    <clipPath id="09ef3b2862">
      <path d="M 2.082031 0 L 122 0 L 122 119 L 2.082031 119 Z M 2.082031 0 " clip-rule="nonzero"/>
    </clipPath>
  </defs>
  <g clip-path="url(#5172da2761)">
    <path fill="#414042" d="M 90.609375 130.894531 C 86.355469 135.148438 79.433594 135.144531 75.179688 130.894531 C 70.929688 126.640625 70.925781 119.722656 75.179688 115.46875 C 79.433594 111.214844 86.355469 111.21875 90.609375 115.46875 C 94.859375 119.722656 94.863281 126.640625 90.609375 130.894531 Z M 138.519531 79.644531 L 147.582031 70.582031 L 147.582031 56.933594 L 137.078125 56.933594 L 91.417969 102.585938 C 83.335938 99.25 73.683594 100.867188 67.128906 107.417969 C 58.4375 116.109375 58.4375 130.253906 67.128906 138.945312 C 75.820312 147.636719 89.96875 147.636719 98.664062 138.945312 C 105.214844 132.390625 106.828125 122.738281 103.5 114.660156 L 122.648438 95.511719 L 119.851562 88.6875 L 121.863281 86.671875 L 128.6875 89.472656 L 132.480469 85.683594 L 129.679688 78.859375 L 131.695312 76.847656 L 138.519531 79.644531 " fill-opacity="1" fill-rule="nonzero"/>
  </g>
  <path fill="#414042" d="M 92.554688 38.605469 C 92.21875 37.351562 91.082031 36.480469 89.785156 36.480469 L 33.402344 36.480469 C 32.105469 36.480469 30.96875 37.351562 30.636719 38.605469 C 30.296875 39.859375 30.847656 41.183594 31.972656 41.832031 L 60.164062 58.074219 C 60.605469 58.328125 61.101562 58.457031 61.59375 58.457031 C 62.089844 58.457031 62.585938 58.328125 63.027344 58.074219 L 91.214844 41.832031 C 92.339844 41.183594 92.890625 39.859375 92.554688 38.605469 " fill-opacity="1" fill-rule="nonzero"/>
  <path fill="#414042" d="M 65.410156 62.210938 C 64.253906 62.878906 62.933594 63.234375 61.59375 63.234375 C 60.257812 63.234375 58.933594 62.878906 57.777344 62.210938 L 36.269531 49.820312 L 30.539062 46.515625 L 30.539062 79.632812 C 30.539062 81.21875 31.820312 82.5 33.402344 82.5 L 89.785156 82.5 C 91.367188 82.5 92.648438 81.21875 92.648438 79.632812 L 92.648438 46.515625 L 86.917969 49.820312 L 65.410156 62.210938 " fill-opacity="1" fill-rule="nonzero"/>
  <g clip-path="url(#09ef3b2862)">
    <path fill="#414042" d="M 13.472656 59.492188 C 13.472656 32.960938 35.058594 11.378906 61.59375 11.378906 C 88.128906 11.378906 109.714844 32.960938 109.714844 59.492188 C 109.714844 67.828125 107.582031 75.675781 103.835938 82.519531 L 120.796875 65.566406 C 120.796875 65.5625 120.796875 65.5625 120.796875 65.5625 C 120.996094 63.5625 121.101562 61.539062 121.101562 59.492188 C 121.101562 26.683594 94.40625 -0.0078125 61.59375 -0.0078125 C 28.78125 -0.0078125 2.082031 26.683594 2.082031 59.492188 C 2.082031 90.265625 25.570312 115.652344 55.566406 118.6875 C 56.203125 114.773438 57.683594 110.972656 60.003906 107.574219 C 34.203125 106.734375 13.472656 85.488281 13.472656 59.492188 " fill-opacity="1" fill-rule="nonzero"/>
  </g>
</svg>