<svg xmlns="http://www.w3.org/2000/svg" xmlns:xlink="http://www.w3.org/1999/xlink" width="400" zoomAndPan="magnify" viewBox="0 0 300 299.999988" height="400" preserveAspectRatio="xMidYMid meet" version="1.0"><defs><clipPath id="f7875159e5"><path d="M 191 56.460938 L 275 56.460938 L 275 140 L 191 140 Z M 191 56.460938 " clip-rule="nonzero"/></clipPath><clipPath id="16911b1f88"><path d="M 4.667969 149 L 213 149 L 213 243.210938 L 4.667969 243.210938 Z M 4.667969 149 " clip-rule="nonzero"/></clipPath><clipPath id="9c059b11d3"><path d="M 170 118 L 295.492188 118 L 295.492188 243.210938 L 170 243.210938 Z M 170 118 " clip-rule="nonzero"/></clipPath></defs><g clip-path="url(#f7875159e5)"><path fill="#0e6ae0" d="M 264.3125 139.460938 L 201.957031 139.460938 C 201.273438 139.460938 200.597656 139.394531 199.929688 139.257812 C 199.257812 139.125 198.609375 138.929688 197.980469 138.667969 C 197.347656 138.410156 196.75 138.089844 196.183594 137.710938 C 195.613281 137.332031 195.089844 136.902344 194.605469 136.421875 C 194.125 135.9375 193.695312 135.414062 193.316406 134.847656 C 192.933594 134.28125 192.617188 133.683594 192.355469 133.054688 C 192.09375 132.425781 191.894531 131.777344 191.761719 131.109375 C 191.628906 130.441406 191.5625 129.765625 191.5625 129.085938 L 191.5625 97.960938 C 191.5625 96.601562 191.628906 95.242188 191.761719 93.890625 C 191.898438 92.539062 192.097656 91.195312 192.363281 89.863281 C 192.628906 88.53125 192.957031 87.214844 193.351562 85.914062 C 193.75 84.613281 194.207031 83.332031 194.726562 82.078125 C 195.25 80.820312 195.828125 79.59375 196.472656 78.394531 C 197.113281 77.199219 197.8125 76.03125 198.570312 74.902344 C 199.324219 73.773438 200.136719 72.683594 201 71.632812 C 201.863281 70.582031 202.777344 69.574219 203.738281 68.613281 C 204.703125 67.652344 205.710938 66.742188 206.761719 65.878906 C 207.8125 65.015625 208.90625 64.207031 210.039062 63.453125 C 211.171875 62.699219 212.335938 62 213.539062 61.359375 C 214.738281 60.71875 215.96875 60.136719 217.226562 59.617188 C 218.484375 59.097656 219.765625 58.640625 221.066406 58.246094 C 222.371094 57.851562 223.6875 57.523438 225.023438 57.257812 C 226.359375 56.992188 227.703125 56.792969 229.058594 56.660156 C 230.414062 56.527344 231.773438 56.460938 233.132812 56.460938 C 234.496094 56.460938 235.855469 56.527344 237.210938 56.660156 C 238.5625 56.792969 239.910156 56.992188 241.246094 57.257812 C 242.578125 57.523438 243.898438 57.851562 245.203125 58.246094 C 246.503906 58.640625 247.785156 59.097656 249.042969 59.617188 C 250.300781 60.136719 251.53125 60.71875 252.730469 61.359375 C 253.929688 62 255.097656 62.699219 256.230469 63.453125 C 257.363281 64.207031 258.453125 65.015625 259.507812 65.878906 C 260.558594 66.742188 261.566406 67.652344 262.53125 68.613281 C 263.492188 69.574219 264.40625 70.582031 265.269531 71.632812 C 266.132812 72.683594 266.941406 73.773438 267.699219 74.902344 C 268.457031 76.03125 269.15625 77.199219 269.796875 78.394531 C 270.4375 79.59375 271.019531 80.820312 271.542969 82.078125 C 272.0625 83.332031 272.519531 84.613281 272.914062 85.914062 C 273.3125 87.214844 273.640625 88.53125 273.90625 89.863281 C 274.171875 91.195312 274.371094 92.539062 274.503906 93.890625 C 274.640625 95.242188 274.707031 96.601562 274.707031 97.960938 L 274.707031 129.085938 C 274.707031 129.765625 274.640625 130.441406 274.503906 131.109375 C 274.371094 131.777344 274.175781 132.425781 273.914062 133.054688 C 273.652344 133.683594 273.332031 134.28125 272.953125 134.847656 C 272.574219 135.414062 272.144531 135.9375 271.660156 136.421875 C 271.179688 136.902344 270.652344 137.332031 270.085938 137.710938 C 269.519531 138.089844 268.921875 138.410156 268.289062 138.667969 C 267.660156 138.929688 267.007812 139.125 266.339844 139.257812 C 265.671875 139.394531 264.996094 139.460938 264.3125 139.460938 Z M 212.347656 118.710938 L 253.921875 118.710938 L 253.921875 97.960938 C 253.921875 97.28125 253.886719 96.601562 253.820312 95.925781 C 253.753906 95.25 253.652344 94.578125 253.519531 93.910156 C 253.386719 93.246094 253.222656 92.585938 253.023438 91.9375 C 252.828125 91.285156 252.597656 90.644531 252.335938 90.019531 C 252.078125 89.390625 251.785156 88.777344 251.464844 88.175781 C 251.144531 87.578125 250.796875 86.996094 250.417969 86.429688 C 250.039062 85.867188 249.632812 85.320312 249.203125 84.796875 C 248.769531 84.269531 248.3125 83.765625 247.832031 83.285156 C 247.351562 82.804688 246.847656 82.351562 246.320312 81.917969 C 245.792969 81.488281 245.25 81.082031 244.683594 80.707031 C 244.117188 80.328125 243.53125 79.980469 242.933594 79.660156 C 242.332031 79.339844 241.71875 79.046875 241.089844 78.789062 C 240.460938 78.527344 239.820312 78.300781 239.167969 78.101562 C 238.515625 77.90625 237.855469 77.742188 237.1875 77.609375 C 236.523438 77.476562 235.847656 77.375 235.171875 77.308594 C 234.496094 77.242188 233.816406 77.210938 233.132812 77.210938 C 232.453125 77.210938 231.773438 77.242188 231.097656 77.308594 C 230.417969 77.375 229.746094 77.476562 229.078125 77.609375 C 228.410156 77.742188 227.753906 77.90625 227.101562 78.101562 C 226.449219 78.300781 225.808594 78.527344 225.179688 78.789062 C 224.550781 79.046875 223.9375 79.339844 223.335938 79.660156 C 222.734375 79.980469 222.152344 80.328125 221.585938 80.707031 C 221.019531 81.082031 220.472656 81.488281 219.949219 81.917969 C 219.421875 82.351562 218.917969 82.804688 218.4375 83.285156 C 217.957031 83.765625 217.5 84.269531 217.066406 84.796875 C 216.636719 85.320312 216.230469 85.867188 215.851562 86.429688 C 215.472656 86.996094 215.125 87.578125 214.804688 88.175781 C 214.480469 88.777344 214.191406 89.390625 213.929688 90.019531 C 213.671875 90.644531 213.441406 91.285156 213.242188 91.9375 C 213.046875 92.585938 212.882812 93.246094 212.75 93.910156 C 212.617188 94.578125 212.515625 95.25 212.449219 95.925781 C 212.382812 96.601562 212.347656 97.28125 212.347656 97.960938 Z M 212.347656 118.710938 " fill-opacity="1" fill-rule="nonzero"/></g><g clip-path="url(#16911b1f88)"><path fill="#d8e1ef" d="M 201.957031 222.460938 C 201.273438 222.457031 200.597656 222.390625 199.929688 222.257812 C 199.261719 222.125 198.609375 221.925781 197.980469 221.667969 C 197.351562 221.40625 196.75 221.085938 196.183594 220.707031 C 195.617188 220.328125 195.09375 219.898438 194.609375 219.417969 C 194.128906 218.9375 193.695312 218.410156 193.316406 217.847656 C 192.9375 217.28125 192.617188 216.683594 192.355469 216.054688 C 192.09375 215.425781 191.898438 214.773438 191.765625 214.109375 C 191.628906 213.441406 191.5625 212.765625 191.5625 212.085938 L 191.5625 160.210938 C 191.5625 159.527344 191.496094 158.851562 191.363281 158.183594 C 191.230469 157.515625 191.03125 156.867188 190.773438 156.238281 C 190.511719 155.609375 190.191406 155.011719 189.8125 154.445312 C 189.433594 153.878906 189 153.355469 188.519531 152.871094 C 188.035156 152.390625 187.511719 151.960938 186.945312 151.582031 C 186.375 151.203125 185.777344 150.882812 185.148438 150.625 C 184.515625 150.363281 183.867188 150.167969 183.199219 150.035156 C 182.527344 149.902344 181.851562 149.835938 181.171875 149.835938 L 35.671875 149.835938 C 34.648438 149.835938 33.632812 149.886719 32.617188 149.988281 C 31.601562 150.085938 30.589844 150.238281 29.589844 150.4375 C 28.589844 150.636719 27.601562 150.886719 26.625 151.183594 C 25.648438 151.476562 24.6875 151.820312 23.746094 152.210938 C 22.800781 152.601562 21.878906 153.039062 20.980469 153.519531 C 20.082031 154 19.207031 154.523438 18.355469 155.089844 C 17.507812 155.65625 16.691406 156.261719 15.902344 156.910156 C 15.113281 157.554688 14.355469 158.238281 13.632812 158.960938 C 12.914062 159.679688 12.226562 160.433594 11.582031 161.222656 C 10.933594 162.011719 10.324219 162.828125 9.757812 163.675781 C 9.191406 164.523438 8.664062 165.394531 8.183594 166.292969 C 7.703125 167.191406 7.265625 168.113281 6.875 169.054688 C 6.484375 169.996094 6.140625 170.953125 5.84375 171.929688 C 5.546875 172.902344 5.296875 173.890625 5.097656 174.890625 C 4.898438 175.886719 4.746094 176.894531 4.644531 177.910156 C 4.542969 178.921875 4.492188 179.941406 4.492188 180.960938 L 4.492188 212.085938 C 4.492188 213.101562 4.542969 214.121094 4.644531 215.132812 C 4.746094 216.148438 4.898438 217.15625 5.097656 218.152344 C 5.296875 219.152344 5.546875 220.140625 5.84375 221.117188 C 6.140625 222.089844 6.484375 223.046875 6.875 223.988281 C 7.265625 224.929688 7.703125 225.851562 8.183594 226.75 C 8.664062 227.648438 9.191406 228.519531 9.757812 229.367188 C 10.324219 230.214844 10.933594 231.03125 11.582031 231.820312 C 12.226562 232.609375 12.914062 233.363281 13.632812 234.082031 C 14.355469 234.804688 15.113281 235.488281 15.902344 236.132812 C 16.691406 236.78125 17.507812 237.386719 18.355469 237.953125 C 19.207031 238.519531 20.082031 239.042969 20.980469 239.523438 C 21.878906 240.003906 22.800781 240.441406 23.746094 240.832031 C 24.6875 241.222656 25.648438 241.566406 26.625 241.859375 C 27.601562 242.15625 28.589844 242.40625 29.589844 242.605469 C 30.589844 242.804688 31.601562 242.957031 32.617188 243.054688 C 33.632812 243.15625 34.648438 243.207031 35.671875 243.210938 L 201.957031 243.210938 C 202.636719 243.210938 203.3125 243.144531 203.984375 243.007812 C 204.652344 242.875 205.300781 242.679688 205.933594 242.417969 C 206.5625 242.160156 207.164062 241.839844 207.730469 241.460938 C 208.296875 241.082031 208.820312 240.652344 209.304688 240.171875 C 209.789062 239.6875 210.21875 239.164062 210.597656 238.597656 C 210.976562 238.03125 211.296875 237.433594 211.558594 236.804688 C 211.820312 236.175781 212.015625 235.527344 212.148438 234.859375 C 212.28125 234.191406 212.347656 233.515625 212.347656 232.835938 C 212.347656 232.152344 212.28125 231.476562 212.148438 230.808594 C 212.015625 230.140625 211.820312 229.492188 211.558594 228.863281 C 211.296875 228.234375 210.976562 227.636719 210.597656 227.070312 C 210.21875 226.503906 209.789062 225.980469 209.304688 225.496094 C 208.820312 225.015625 208.296875 224.585938 207.730469 224.207031 C 207.164062 223.828125 206.5625 223.507812 205.933594 223.25 C 205.300781 222.988281 204.652344 222.792969 203.984375 222.660156 C 203.3125 222.527344 202.636719 222.460938 201.957031 222.460938 Z M 201.957031 222.460938 " fill-opacity="1" fill-rule="nonzero"/></g><path fill="#0593ff" d="M 65.328125 182.480469 C 65.085938 182.238281 64.824219 182.023438 64.539062 181.835938 C 64.253906 181.644531 63.957031 181.484375 63.640625 181.355469 C 63.324219 181.222656 63 181.125 62.667969 181.058594 C 62.332031 180.992188 61.992188 180.960938 61.652344 180.960938 C 61.3125 180.960938 60.972656 180.992188 60.640625 181.058594 C 60.304688 181.125 59.980469 181.222656 59.664062 181.355469 C 59.347656 181.484375 59.050781 181.644531 58.765625 181.835938 C 58.484375 182.023438 58.21875 182.238281 57.980469 182.480469 L 51.261719 189.1875 L 44.542969 182.480469 C 44.296875 182.246094 44.035156 182.035156 43.753906 181.855469 C 43.46875 181.671875 43.171875 181.515625 42.855469 181.390625 C 42.542969 181.265625 42.222656 181.171875 41.890625 181.113281 C 41.558594 181.050781 41.222656 181.019531 40.886719 181.023438 C 40.546875 181.027344 40.214844 181.0625 39.882812 181.128906 C 39.554688 181.195312 39.234375 181.296875 38.921875 181.425781 C 38.609375 181.554688 38.316406 181.714844 38.035156 181.902344 C 37.753906 182.089844 37.496094 182.304688 37.257812 182.542969 C 37.019531 182.78125 36.804688 183.039062 36.617188 183.320312 C 36.429688 183.597656 36.269531 183.894531 36.140625 184.203125 C 36.007812 184.515625 35.910156 184.835938 35.839844 185.164062 C 35.773438 185.496094 35.738281 185.828125 35.734375 186.164062 C 35.730469 186.503906 35.761719 186.835938 35.824219 187.167969 C 35.886719 187.496094 35.980469 187.820312 36.105469 188.132812 C 36.230469 188.445312 36.382812 188.742188 36.566406 189.027344 C 36.75 189.308594 36.960938 189.570312 37.195312 189.8125 L 43.914062 196.523438 L 37.195312 203.230469 C 36.960938 203.472656 36.75 203.734375 36.566406 204.015625 C 36.382812 204.300781 36.230469 204.597656 36.105469 204.910156 C 35.980469 205.222656 35.886719 205.546875 35.824219 205.875 C 35.761719 206.207031 35.730469 206.542969 35.734375 206.878906 C 35.738281 207.214844 35.773438 207.546875 35.839844 207.878906 C 35.910156 208.207031 36.007812 208.527344 36.140625 208.839844 C 36.269531 209.148438 36.429688 209.445312 36.617188 209.722656 C 36.804688 210.003906 37.019531 210.261719 37.257812 210.5 C 37.496094 210.738281 37.753906 210.953125 38.035156 211.140625 C 38.316406 211.328125 38.609375 211.488281 38.921875 211.617188 C 39.234375 211.746094 39.554688 211.847656 39.882812 211.914062 C 40.214844 211.980469 40.546875 212.015625 40.886719 212.019531 C 41.222656 212.023438 41.558594 211.992188 41.890625 211.929688 C 42.222656 211.871094 42.542969 211.777344 42.855469 211.652344 C 43.171875 211.527344 43.46875 211.371094 43.753906 211.1875 C 44.035156 211.007812 44.296875 210.796875 44.542969 210.5625 L 51.261719 203.855469 L 57.980469 210.5625 C 58.222656 210.796875 58.484375 211.007812 58.769531 211.1875 C 59.050781 211.371094 59.351562 211.527344 59.664062 211.652344 C 59.976562 211.777344 60.300781 211.871094 60.628906 211.929688 C 60.960938 211.992188 61.296875 212.023438 61.632812 212.019531 C 61.972656 212.015625 62.304688 211.980469 62.636719 211.914062 C 62.964844 211.847656 63.289062 211.746094 63.597656 211.617188 C 63.910156 211.488281 64.207031 211.328125 64.484375 211.140625 C 64.765625 210.953125 65.023438 210.738281 65.265625 210.5 C 65.503906 210.261719 65.714844 210.003906 65.902344 209.722656 C 66.089844 209.445312 66.25 209.148438 66.382812 208.839844 C 66.511719 208.527344 66.609375 208.207031 66.679688 207.878906 C 66.746094 207.546875 66.78125 207.214844 66.785156 206.878906 C 66.789062 206.542969 66.757812 206.207031 66.695312 205.875 C 66.632812 205.546875 66.539062 205.222656 66.414062 204.910156 C 66.289062 204.597656 66.136719 204.300781 65.953125 204.015625 C 65.769531 203.734375 65.5625 203.472656 65.328125 203.230469 L 58.609375 196.523438 L 65.328125 189.8125 C 65.566406 189.574219 65.785156 189.3125 65.972656 189.027344 C 66.164062 188.746094 66.324219 188.445312 66.453125 188.132812 C 66.582031 187.816406 66.683594 187.492188 66.75 187.160156 C 66.816406 186.824219 66.847656 186.488281 66.847656 186.148438 C 66.847656 185.804688 66.816406 185.46875 66.75 185.132812 C 66.683594 184.800781 66.582031 184.476562 66.453125 184.160156 C 66.324219 183.847656 66.164062 183.546875 65.972656 183.265625 C 65.785156 182.980469 65.566406 182.71875 65.328125 182.480469 Z M 65.328125 182.480469 " fill-opacity="1" fill-rule="nonzero"/><path fill="#0593ff" d="M 106.898438 182.480469 C 106.65625 182.238281 106.394531 182.023438 106.109375 181.835938 C 105.828125 181.644531 105.527344 181.484375 105.210938 181.355469 C 104.898438 181.222656 104.574219 181.125 104.238281 181.058594 C 103.902344 180.992188 103.566406 180.960938 103.222656 180.960938 C 102.882812 180.960938 102.546875 180.992188 102.210938 181.058594 C 101.875 181.125 101.550781 181.222656 101.234375 181.355469 C 100.921875 181.484375 100.621094 181.644531 100.335938 181.835938 C 100.054688 182.023438 99.792969 182.238281 99.550781 182.480469 L 92.832031 189.1875 L 86.113281 182.480469 C 85.871094 182.246094 85.605469 182.035156 85.324219 181.855469 C 85.039062 181.671875 84.742188 181.515625 84.429688 181.390625 C 84.113281 181.265625 83.792969 181.171875 83.460938 181.113281 C 83.128906 181.050781 82.792969 181.019531 82.457031 181.023438 C 82.121094 181.027344 81.785156 181.0625 81.457031 181.128906 C 81.125 181.195312 80.804688 181.296875 80.492188 181.425781 C 80.183594 181.554688 79.886719 181.714844 79.605469 181.902344 C 79.324219 182.089844 79.066406 182.304688 78.828125 182.542969 C 78.589844 182.78125 78.375 183.039062 78.1875 183.320312 C 78 183.597656 77.839844 183.894531 77.710938 184.203125 C 77.578125 184.515625 77.480469 184.835938 77.414062 185.164062 C 77.34375 185.496094 77.308594 185.828125 77.304688 186.164062 C 77.304688 186.503906 77.332031 186.835938 77.394531 187.167969 C 77.457031 187.5 77.550781 187.820312 77.675781 188.132812 C 77.800781 188.445312 77.957031 188.742188 78.136719 189.027344 C 78.320312 189.308594 78.53125 189.570312 78.765625 189.8125 L 85.484375 196.523438 L 78.765625 203.230469 C 78.53125 203.472656 78.320312 203.734375 78.136719 204.015625 C 77.957031 204.300781 77.800781 204.597656 77.675781 204.910156 C 77.550781 205.222656 77.457031 205.546875 77.394531 205.875 C 77.332031 206.207031 77.304688 206.542969 77.304688 206.878906 C 77.308594 207.214844 77.34375 207.546875 77.414062 207.878906 C 77.480469 208.207031 77.578125 208.527344 77.710938 208.839844 C 77.839844 209.148438 78 209.445312 78.1875 209.722656 C 78.375 210.003906 78.589844 210.261719 78.828125 210.5 C 79.066406 210.738281 79.324219 210.953125 79.605469 211.140625 C 79.886719 211.328125 80.183594 211.488281 80.492188 211.617188 C 80.804688 211.746094 81.125 211.847656 81.457031 211.914062 C 81.785156 211.980469 82.121094 212.015625 82.457031 212.019531 C 82.792969 212.023438 83.128906 211.992188 83.460938 211.929688 C 83.792969 211.871094 84.113281 211.777344 84.429688 211.652344 C 84.742188 211.527344 85.039062 211.371094 85.324219 211.1875 C 85.605469 211.007812 85.871094 210.796875 86.113281 210.5625 L 92.832031 203.855469 L 99.550781 210.5625 C 99.792969 210.796875 100.054688 211.007812 100.339844 211.191406 C 100.621094 211.371094 100.921875 211.527344 101.234375 211.652344 C 101.546875 211.777344 101.871094 211.871094 102.203125 211.929688 C 102.535156 211.992188 102.867188 212.023438 103.207031 212.019531 C 103.542969 212.015625 103.875 211.980469 104.207031 211.914062 C 104.539062 211.847656 104.859375 211.746094 105.167969 211.617188 C 105.480469 211.488281 105.777344 211.328125 106.058594 211.140625 C 106.335938 210.953125 106.597656 210.738281 106.835938 210.5 C 107.074219 210.261719 107.285156 210.003906 107.476562 209.722656 C 107.664062 209.445312 107.820312 209.148438 107.953125 208.839844 C 108.082031 208.527344 108.183594 208.207031 108.25 207.878906 C 108.316406 207.546875 108.355469 207.214844 108.355469 206.878906 C 108.359375 206.542969 108.328125 206.207031 108.269531 205.875 C 108.207031 205.546875 108.113281 205.222656 107.988281 204.910156 C 107.863281 204.597656 107.707031 204.300781 107.523438 204.015625 C 107.339844 203.734375 107.132812 203.472656 106.898438 203.230469 L 100.179688 196.523438 L 106.898438 189.8125 C 107.140625 189.574219 107.355469 189.3125 107.542969 189.027344 C 107.734375 188.746094 107.894531 188.445312 108.023438 188.132812 C 108.15625 187.816406 108.253906 187.492188 108.320312 187.160156 C 108.386719 186.824219 108.417969 186.488281 108.417969 186.148438 C 108.417969 185.804688 108.386719 185.46875 108.320312 185.132812 C 108.253906 184.800781 108.15625 184.476562 108.023438 184.160156 C 107.894531 183.847656 107.734375 183.546875 107.542969 183.265625 C 107.355469 182.980469 107.140625 182.71875 106.898438 182.480469 Z M 106.898438 182.480469 " fill-opacity="1" fill-rule="nonzero"/><path fill="#0593ff" d="M 141.75 196.523438 L 148.46875 189.8125 C 148.703125 189.570312 148.914062 189.308594 149.09375 189.027344 C 149.277344 188.742188 149.433594 188.445312 149.558594 188.132812 C 149.683594 187.820312 149.777344 187.5 149.839844 187.167969 C 149.902344 186.835938 149.929688 186.503906 149.929688 186.164062 C 149.925781 185.828125 149.890625 185.496094 149.820312 185.164062 C 149.753906 184.835938 149.65625 184.515625 149.523438 184.203125 C 149.394531 183.894531 149.234375 183.597656 149.046875 183.320312 C 148.859375 183.039062 148.644531 182.78125 148.40625 182.542969 C 148.167969 182.304688 147.90625 182.089844 147.628906 181.902344 C 147.347656 181.714844 147.050781 181.554688 146.742188 181.425781 C 146.429688 181.296875 146.109375 181.195312 145.777344 181.128906 C 145.449219 181.0625 145.113281 181.027344 144.777344 181.023438 C 144.4375 181.019531 144.105469 181.050781 143.773438 181.113281 C 143.441406 181.175781 143.121094 181.265625 142.804688 181.390625 C 142.492188 181.515625 142.195312 181.671875 141.910156 181.855469 C 141.628906 182.035156 141.363281 182.246094 141.121094 182.480469 L 134.402344 189.1875 L 127.683594 182.480469 C 127.441406 182.246094 127.179688 182.035156 126.894531 181.855469 C 126.609375 181.671875 126.3125 181.515625 126 181.390625 C 125.6875 181.265625 125.363281 181.171875 125.03125 181.113281 C 124.699219 181.050781 124.367188 181.019531 124.027344 181.023438 C 123.691406 181.027344 123.355469 181.0625 123.027344 181.128906 C 122.695312 181.195312 122.375 181.296875 122.0625 181.425781 C 121.753906 181.554688 121.457031 181.714844 121.175781 181.902344 C 120.898438 182.089844 120.636719 182.304688 120.398438 182.542969 C 120.160156 182.78125 119.949219 183.039062 119.757812 183.320312 C 119.570312 183.597656 119.410156 183.894531 119.28125 184.203125 C 119.152344 184.515625 119.050781 184.835938 118.984375 185.164062 C 118.914062 185.496094 118.878906 185.828125 118.878906 186.164062 C 118.875 186.503906 118.902344 186.835938 118.964844 187.167969 C 119.027344 187.5 119.121094 187.820312 119.246094 188.132812 C 119.371094 188.445312 119.527344 188.742188 119.710938 189.027344 C 119.894531 189.308594 120.101562 189.570312 120.335938 189.8125 L 127.054688 196.523438 L 120.335938 203.230469 C 120.101562 203.472656 119.894531 203.734375 119.710938 204.015625 C 119.527344 204.300781 119.371094 204.597656 119.246094 204.910156 C 119.121094 205.222656 119.027344 205.546875 118.964844 205.875 C 118.902344 206.207031 118.875 206.542969 118.878906 206.878906 C 118.878906 207.214844 118.914062 207.546875 118.984375 207.878906 C 119.050781 208.207031 119.152344 208.527344 119.28125 208.839844 C 119.410156 209.148438 119.570312 209.445312 119.757812 209.722656 C 119.949219 210.003906 120.160156 210.261719 120.398438 210.5 C 120.636719 210.738281 120.898438 210.953125 121.175781 211.140625 C 121.457031 211.328125 121.753906 211.488281 122.0625 211.617188 C 122.375 211.746094 122.695312 211.847656 123.027344 211.914062 C 123.355469 211.980469 123.691406 212.015625 124.027344 212.019531 C 124.367188 212.023438 124.699219 211.992188 125.03125 211.929688 C 125.363281 211.871094 125.6875 211.777344 126 211.652344 C 126.3125 211.527344 126.609375 211.371094 126.894531 211.1875 C 127.179688 211.007812 127.441406 210.796875 127.683594 210.5625 L 134.402344 203.855469 L 141.121094 210.5625 C 141.363281 210.796875 141.628906 211.007812 141.910156 211.191406 C 142.195312 211.371094 142.492188 211.527344 142.804688 211.652344 C 143.121094 211.777344 143.441406 211.871094 143.773438 211.929688 C 144.105469 211.992188 144.4375 212.023438 144.777344 212.019531 C 145.113281 212.015625 145.449219 211.980469 145.777344 211.914062 C 146.109375 211.847656 146.429688 211.746094 146.742188 211.617188 C 147.050781 211.488281 147.347656 211.328125 147.628906 211.140625 C 147.90625 210.953125 148.167969 210.738281 148.40625 210.5 C 148.644531 210.261719 148.859375 210.003906 149.046875 209.722656 C 149.234375 209.445312 149.394531 209.148438 149.523438 208.839844 C 149.65625 208.527344 149.753906 208.207031 149.820312 207.878906 C 149.890625 207.546875 149.925781 207.214844 149.929688 206.878906 C 149.929688 206.542969 149.902344 206.207031 149.839844 205.875 C 149.777344 205.546875 149.683594 205.222656 149.558594 204.910156 C 149.433594 204.597656 149.277344 204.300781 149.097656 204.015625 C 148.914062 203.734375 148.703125 203.472656 148.46875 203.230469 Z M 141.75 196.523438 " fill-opacity="1" fill-rule="nonzero"/><g clip-path="url(#9c059b11d3)"><path fill="#0593ff" d="M 201.957031 118.710938 L 264.3125 118.710938 C 265.332031 118.710938 266.351562 118.757812 267.367188 118.859375 C 268.386719 118.957031 269.394531 119.109375 270.394531 119.308594 C 271.398438 119.507812 272.386719 119.753906 273.363281 120.050781 C 274.339844 120.34375 275.300781 120.6875 276.246094 121.078125 C 277.1875 121.46875 278.109375 121.902344 279.011719 122.382812 C 279.910156 122.863281 280.785156 123.386719 281.632812 123.953125 C 282.484375 124.519531 283.304688 125.128906 284.09375 125.773438 C 284.882812 126.421875 285.636719 127.105469 286.359375 127.824219 C 287.082031 128.546875 287.765625 129.300781 288.414062 130.089844 C 289.0625 130.875 289.667969 131.695312 290.238281 132.542969 C 290.804688 133.390625 291.328125 134.261719 291.808594 135.160156 C 292.292969 136.0625 292.726562 136.980469 293.117188 137.921875 C 293.507812 138.863281 293.851562 139.824219 294.148438 140.800781 C 294.445312 141.773438 294.691406 142.761719 294.890625 143.761719 C 295.089844 144.761719 295.242188 145.769531 295.339844 146.785156 C 295.441406 147.796875 295.492188 148.816406 295.492188 149.835938 L 295.492188 212.085938 C 295.492188 213.101562 295.441406 214.121094 295.339844 215.136719 C 295.242188 216.148438 295.089844 217.15625 294.890625 218.15625 C 294.691406 219.15625 294.445312 220.144531 294.148438 221.121094 C 293.851562 222.09375 293.507812 223.054688 293.117188 223.996094 C 292.726562 224.9375 292.292969 225.855469 291.808594 226.757812 C 291.328125 227.65625 290.804688 228.527344 290.238281 229.375 C 289.667969 230.222656 289.0625 231.042969 288.414062 231.828125 C 287.765625 232.617188 287.082031 233.371094 286.359375 234.09375 C 285.636719 234.8125 284.882812 235.496094 284.09375 236.144531 C 283.304688 236.789062 282.484375 237.398438 281.632812 237.964844 C 280.785156 238.53125 279.910156 239.054688 279.011719 239.535156 C 278.109375 240.015625 277.1875 240.449219 276.246094 240.839844 C 275.300781 241.230469 274.339844 241.574219 273.363281 241.867188 C 272.386719 242.164062 271.398438 242.410156 270.394531 242.609375 C 269.394531 242.808594 268.386719 242.960938 267.367188 243.058594 C 266.351562 243.160156 265.332031 243.210938 264.3125 243.210938 L 201.957031 243.210938 C 200.933594 243.210938 199.917969 243.160156 198.898438 243.058594 C 197.882812 242.960938 196.875 242.808594 195.875 242.609375 C 194.871094 242.414062 193.882812 242.164062 192.90625 241.867188 C 191.929688 241.574219 190.96875 241.230469 190.023438 240.839844 C 189.082031 240.449219 188.160156 240.015625 187.257812 239.535156 C 186.359375 239.054688 185.484375 238.53125 184.632812 237.964844 C 183.785156 237.398438 182.964844 236.789062 182.175781 236.144531 C 181.386719 235.496094 180.632812 234.8125 179.910156 234.09375 C 179.1875 233.371094 178.503906 232.617188 177.855469 231.828125 C 177.207031 231.042969 176.597656 230.222656 176.03125 229.375 C 175.464844 228.527344 174.941406 227.65625 174.457031 226.757812 C 173.976562 225.855469 173.542969 224.9375 173.152344 223.996094 C 172.761719 223.054688 172.417969 222.09375 172.121094 221.121094 C 171.824219 220.144531 171.574219 219.15625 171.375 218.15625 C 171.175781 217.15625 171.027344 216.148438 170.925781 215.136719 C 170.828125 214.121094 170.777344 213.101562 170.777344 212.085938 L 170.777344 149.835938 C 170.777344 148.816406 170.828125 147.796875 170.925781 146.785156 C 171.027344 145.769531 171.175781 144.761719 171.375 143.761719 C 171.574219 142.761719 171.824219 141.773438 172.121094 140.800781 C 172.417969 139.824219 172.761719 138.863281 173.152344 137.921875 C 173.542969 136.980469 173.976562 136.0625 174.457031 135.160156 C 174.941406 134.261719 175.464844 133.390625 176.03125 132.542969 C 176.597656 131.695312 177.207031 130.875 177.855469 130.089844 C 178.503906 129.300781 179.1875 128.546875 179.910156 127.824219 C 180.632812 127.105469 181.386719 126.421875 182.175781 125.773438 C 182.964844 125.128906 183.785156 124.519531 184.632812 123.953125 C 185.484375 123.386719 186.359375 122.863281 187.257812 122.382812 C 188.160156 121.902344 189.082031 121.46875 190.023438 121.078125 C 190.96875 120.6875 191.929688 120.34375 192.90625 120.050781 C 193.882812 119.753906 194.871094 119.507812 195.875 119.308594 C 196.875 119.109375 197.882812 118.957031 198.898438 118.859375 C 199.917969 118.757812 200.933594 118.710938 201.957031 118.710938 Z M 201.957031 118.710938 " fill-opacity="1" fill-rule="nonzero"/></g><path fill="#0e6ae0" d="M 253.921875 170.585938 C 253.925781 169.371094 253.828125 168.167969 253.621094 166.976562 C 253.417969 165.78125 253.109375 164.613281 252.699219 163.472656 C 252.289062 162.332031 251.785156 161.234375 251.183594 160.183594 C 250.578125 159.132812 249.890625 158.140625 249.113281 157.207031 C 248.339844 156.277344 247.488281 155.417969 246.558594 154.636719 C 245.632812 153.855469 244.644531 153.15625 243.597656 152.546875 C 242.546875 151.9375 241.453125 151.421875 240.316406 151.003906 C 239.175781 150.585938 238.007812 150.269531 236.8125 150.054688 C 235.621094 149.839844 234.414062 149.730469 233.203125 149.726562 C 231.988281 149.722656 230.78125 149.824219 229.585938 150.03125 C 228.390625 150.238281 227.222656 150.546875 226.078125 150.960938 C 224.9375 151.371094 223.839844 151.878906 222.789062 152.480469 C 221.734375 153.085938 220.742188 153.773438 219.8125 154.550781 C 218.878906 155.328125 218.023438 156.179688 217.242188 157.105469 C 216.457031 158.03125 215.761719 159.019531 215.152344 160.066406 C 214.542969 161.117188 214.03125 162.210938 213.613281 163.347656 C 213.199219 164.484375 212.882812 165.652344 212.671875 166.84375 C 212.457031 168.035156 212.351562 169.238281 212.347656 170.449219 C 212.347656 171.664062 212.453125 172.867188 212.660156 174.058594 C 212.871094 175.253906 213.183594 176.417969 213.597656 177.558594 C 214.011719 178.695312 214.519531 179.792969 215.128906 180.839844 C 215.734375 181.890625 216.425781 182.878906 217.207031 183.808594 C 217.984375 184.738281 218.839844 185.589844 219.769531 186.371094 C 220.699219 187.148438 221.691406 187.84375 222.742188 188.449219 L 222.742188 201.710938 C 222.742188 202.390625 222.808594 203.066406 222.941406 203.734375 C 223.074219 204.402344 223.269531 205.050781 223.53125 205.679688 C 223.792969 206.308594 224.113281 206.90625 224.492188 207.472656 C 224.871094 208.039062 225.304688 208.5625 225.785156 209.046875 C 226.269531 209.527344 226.792969 209.957031 227.359375 210.335938 C 227.929688 210.714844 228.527344 211.035156 229.15625 211.292969 C 229.789062 211.554688 230.4375 211.75 231.105469 211.882812 C 231.777344 212.019531 232.453125 212.085938 233.132812 212.085938 C 233.816406 212.085938 234.492188 212.019531 235.160156 211.882812 C 235.832031 211.75 236.480469 211.554688 237.113281 211.292969 C 237.742188 211.035156 238.339844 210.714844 238.910156 210.335938 C 239.476562 209.957031 240 209.527344 240.484375 209.046875 C 240.964844 208.5625 241.398438 208.039062 241.777344 207.472656 C 242.15625 206.90625 242.476562 206.308594 242.734375 205.679688 C 242.996094 205.050781 243.195312 204.402344 243.328125 203.734375 C 243.460938 203.066406 243.527344 202.390625 243.527344 201.710938 L 243.527344 188.449219 C 245.101562 187.542969 246.53125 186.453125 247.820312 185.175781 C 249.105469 183.894531 250.207031 182.472656 251.117188 180.902344 C 252.03125 179.335938 252.722656 177.675781 253.199219 175.929688 C 253.671875 174.179688 253.914062 172.398438 253.921875 170.585938 Z M 253.921875 170.585938 " fill-opacity="1" fill-rule="nonzero"/></svg>